<mxfile host="app.diagrams.net" modified="2024-04-14T20:00:56.680Z" agent="Mozilla/5.0 (Windows NT 10.0; Win64; x64) AppleWebKit/537.36 (KHTML, like Gecko) Chrome/123.0.0.0 Safari/537.36" etag="aJxoHsUqndgheImx2-6a" version="24.0.1" type="device">
  <diagram name="Страница — 1" id="t8LsFgmhGFZwbJkl74Cv">
    <mxGraphModel dx="1912" dy="2209" grid="1" gridSize="10" guides="1" tooltips="1" connect="1" arrows="1" fold="1" page="1" pageScale="1" pageWidth="827" pageHeight="1169" math="0" shadow="0">
      <root>
        <mxCell id="0" />
        <mxCell id="1" parent="0" />
        <mxCell id="m7zva88hIw5vG9W0ky69-1" value="Поиск кандидата на вакансию" style="swimlane;horizontal=0;whiteSpace=wrap;html=1;" vertex="1" parent="1">
          <mxGeometry x="100" y="-150" width="960" height="920" as="geometry" />
        </mxCell>
        <mxCell id="m7zva88hIw5vG9W0ky69-2" value="HR-директор" style="swimlane;horizontal=0;whiteSpace=wrap;html=1;" vertex="1" parent="m7zva88hIw5vG9W0ky69-1">
          <mxGeometry x="20" y="320" width="940" height="160" as="geometry" />
        </mxCell>
        <mxCell id="m7zva88hIw5vG9W0ky69-8" value="Оценить заявки" style="rounded=1;whiteSpace=wrap;html=1;" vertex="1" parent="m7zva88hIw5vG9W0ky69-2">
          <mxGeometry x="100" y="10" width="80" height="40" as="geometry" />
        </mxCell>
        <mxCell id="m7zva88hIw5vG9W0ky69-10" value="Выбор кандидата" style="rounded=1;whiteSpace=wrap;html=1;" vertex="1" parent="m7zva88hIw5vG9W0ky69-2">
          <mxGeometry x="520" y="20" width="100" height="35" as="geometry" />
        </mxCell>
        <mxCell id="m7zva88hIw5vG9W0ky69-3" value="Руководитель отдела" style="swimlane;horizontal=0;whiteSpace=wrap;html=1;" vertex="1" parent="m7zva88hIw5vG9W0ky69-1">
          <mxGeometry x="20" y="190" width="940" height="130" as="geometry" />
        </mxCell>
        <mxCell id="m7zva88hIw5vG9W0ky69-5" value="" style="ellipse;whiteSpace=wrap;html=1;aspect=fixed;" vertex="1" parent="m7zva88hIw5vG9W0ky69-3">
          <mxGeometry x="40" y="30" width="20" height="20" as="geometry" />
        </mxCell>
        <mxCell id="m7zva88hIw5vG9W0ky69-6" value="" style="endArrow=classic;html=1;rounded=0;exitX=1;exitY=0.5;exitDx=0;exitDy=0;" edge="1" parent="m7zva88hIw5vG9W0ky69-3" source="m7zva88hIw5vG9W0ky69-5">
          <mxGeometry width="50" height="50" relative="1" as="geometry">
            <mxPoint x="100" y="70" as="sourcePoint" />
            <mxPoint x="100" y="40" as="targetPoint" />
          </mxGeometry>
        </mxCell>
        <mxCell id="m7zva88hIw5vG9W0ky69-7" value="&lt;font style=&quot;font-size: 7px;&quot;&gt;Создать заявки на поиск персонал&lt;/font&gt;" style="rounded=1;whiteSpace=wrap;html=1;" vertex="1" parent="m7zva88hIw5vG9W0ky69-3">
          <mxGeometry x="100" y="25" width="80" height="30" as="geometry" />
        </mxCell>
        <mxCell id="m7zva88hIw5vG9W0ky69-9" value="" style="endArrow=classic;html=1;rounded=0;exitX=0.5;exitY=1;exitDx=0;exitDy=0;" edge="1" parent="m7zva88hIw5vG9W0ky69-1" source="m7zva88hIw5vG9W0ky69-7" target="m7zva88hIw5vG9W0ky69-8">
          <mxGeometry width="50" height="50" relative="1" as="geometry">
            <mxPoint x="140" y="140" as="sourcePoint" />
            <mxPoint x="190" y="90" as="targetPoint" />
          </mxGeometry>
        </mxCell>
        <mxCell id="m7zva88hIw5vG9W0ky69-12" value="Генеральный директор" style="swimlane;horizontal=0;whiteSpace=wrap;html=1;" vertex="1" parent="m7zva88hIw5vG9W0ky69-1">
          <mxGeometry x="20" y="480" width="940" height="240" as="geometry" />
        </mxCell>
        <mxCell id="m7zva88hIw5vG9W0ky69-11" value="Согласовать заявки" style="rounded=1;whiteSpace=wrap;html=1;" vertex="1" parent="m7zva88hIw5vG9W0ky69-12">
          <mxGeometry x="100" y="10" width="80" height="40" as="geometry" />
        </mxCell>
        <mxCell id="m7zva88hIw5vG9W0ky69-16" value="" style="rhombus;whiteSpace=wrap;html=1;" vertex="1" parent="m7zva88hIw5vG9W0ky69-12">
          <mxGeometry x="220" y="15" width="40" height="30" as="geometry" />
        </mxCell>
        <mxCell id="m7zva88hIw5vG9W0ky69-17" value="" style="endArrow=classic;html=1;rounded=0;exitX=1;exitY=0.5;exitDx=0;exitDy=0;entryX=0;entryY=0.5;entryDx=0;entryDy=0;" edge="1" parent="m7zva88hIw5vG9W0ky69-12" source="m7zva88hIw5vG9W0ky69-11" target="m7zva88hIw5vG9W0ky69-16">
          <mxGeometry width="50" height="50" relative="1" as="geometry">
            <mxPoint x="210" y="160" as="sourcePoint" />
            <mxPoint x="260" y="110" as="targetPoint" />
          </mxGeometry>
        </mxCell>
        <mxCell id="m7zva88hIw5vG9W0ky69-18" value="" style="ellipse;whiteSpace=wrap;html=1;aspect=fixed;" vertex="1" parent="m7zva88hIw5vG9W0ky69-12">
          <mxGeometry x="320" y="20" width="20" height="20" as="geometry" />
        </mxCell>
        <mxCell id="m7zva88hIw5vG9W0ky69-19" value="" style="endArrow=classic;html=1;rounded=0;exitX=1;exitY=0.5;exitDx=0;exitDy=0;entryX=0;entryY=0.5;entryDx=0;entryDy=0;" edge="1" parent="m7zva88hIw5vG9W0ky69-12" source="m7zva88hIw5vG9W0ky69-16" target="m7zva88hIw5vG9W0ky69-18">
          <mxGeometry width="50" height="50" relative="1" as="geometry">
            <mxPoint x="240" y="140" as="sourcePoint" />
            <mxPoint x="290" y="90" as="targetPoint" />
          </mxGeometry>
        </mxCell>
        <mxCell id="m7zva88hIw5vG9W0ky69-20" value="&lt;font style=&quot;font-size: 9px;&quot;&gt;Согласована?&lt;/font&gt;" style="text;html=1;align=center;verticalAlign=middle;resizable=0;points=[];autosize=1;strokeColor=none;fillColor=none;" vertex="1" parent="m7zva88hIw5vG9W0ky69-12">
          <mxGeometry x="200" y="-10" width="80" height="30" as="geometry" />
        </mxCell>
        <mxCell id="m7zva88hIw5vG9W0ky69-22" value="Согласовать кандидата" style="rounded=1;whiteSpace=wrap;html=1;" vertex="1" parent="m7zva88hIw5vG9W0ky69-12">
          <mxGeometry x="680" y="30" width="100" height="35" as="geometry" />
        </mxCell>
        <mxCell id="m7zva88hIw5vG9W0ky69-23" value="" style="rhombus;whiteSpace=wrap;html=1;" vertex="1" parent="m7zva88hIw5vG9W0ky69-12">
          <mxGeometry x="710" y="92.5" width="40" height="30" as="geometry" />
        </mxCell>
        <mxCell id="m7zva88hIw5vG9W0ky69-24" value="Утвердить на должность" style="rounded=1;whiteSpace=wrap;html=1;" vertex="1" parent="m7zva88hIw5vG9W0ky69-12">
          <mxGeometry x="790" y="90" width="100" height="35" as="geometry" />
        </mxCell>
        <mxCell id="m7zva88hIw5vG9W0ky69-25" value="" style="endArrow=classic;html=1;rounded=0;exitX=0.5;exitY=1;exitDx=0;exitDy=0;entryX=0.5;entryY=0;entryDx=0;entryDy=0;" edge="1" parent="m7zva88hIw5vG9W0ky69-12" source="m7zva88hIw5vG9W0ky69-22" target="m7zva88hIw5vG9W0ky69-23">
          <mxGeometry width="50" height="50" relative="1" as="geometry">
            <mxPoint x="590" y="170" as="sourcePoint" />
            <mxPoint x="640" y="120" as="targetPoint" />
          </mxGeometry>
        </mxCell>
        <mxCell id="m7zva88hIw5vG9W0ky69-26" value="" style="endArrow=classic;html=1;rounded=0;exitX=1;exitY=0.5;exitDx=0;exitDy=0;entryX=0;entryY=0.5;entryDx=0;entryDy=0;" edge="1" parent="m7zva88hIw5vG9W0ky69-12" source="m7zva88hIw5vG9W0ky69-23" target="m7zva88hIw5vG9W0ky69-24">
          <mxGeometry width="50" height="50" relative="1" as="geometry">
            <mxPoint x="780" y="190" as="sourcePoint" />
            <mxPoint x="830" y="140" as="targetPoint" />
          </mxGeometry>
        </mxCell>
        <mxCell id="m7zva88hIw5vG9W0ky69-27" value="&lt;font style=&quot;font-size: 9px;&quot;&gt;Согласована?&lt;/font&gt;" style="text;html=1;align=center;verticalAlign=middle;resizable=0;points=[];autosize=1;strokeColor=none;fillColor=none;" vertex="1" parent="m7zva88hIw5vG9W0ky69-12">
          <mxGeometry x="630" y="90" width="80" height="30" as="geometry" />
        </mxCell>
        <mxCell id="m7zva88hIw5vG9W0ky69-28" value="да" style="text;html=1;align=center;verticalAlign=middle;resizable=0;points=[];autosize=1;strokeColor=none;fillColor=none;" vertex="1" parent="m7zva88hIw5vG9W0ky69-12">
          <mxGeometry x="254" y="45" width="40" height="30" as="geometry" />
        </mxCell>
        <mxCell id="m7zva88hIw5vG9W0ky69-29" value="да" style="text;html=1;align=center;verticalAlign=middle;resizable=0;points=[];autosize=1;strokeColor=none;fillColor=none;" vertex="1" parent="m7zva88hIw5vG9W0ky69-12">
          <mxGeometry x="740" y="80" width="40" height="30" as="geometry" />
        </mxCell>
        <mxCell id="m7zva88hIw5vG9W0ky69-30" value="нет" style="text;html=1;align=center;verticalAlign=middle;resizable=0;points=[];autosize=1;strokeColor=none;fillColor=none;" vertex="1" parent="m7zva88hIw5vG9W0ky69-12">
          <mxGeometry x="740" y="120" width="40" height="30" as="geometry" />
        </mxCell>
        <mxCell id="m7zva88hIw5vG9W0ky69-58" value="" style="ellipse;whiteSpace=wrap;html=1;aspect=fixed;" vertex="1" parent="m7zva88hIw5vG9W0ky69-12">
          <mxGeometry x="910" y="97.5" width="20" height="20" as="geometry" />
        </mxCell>
        <mxCell id="m7zva88hIw5vG9W0ky69-59" value="" style="endArrow=classic;html=1;rounded=0;exitX=1;exitY=0.5;exitDx=0;exitDy=0;" edge="1" parent="m7zva88hIw5vG9W0ky69-12" source="m7zva88hIw5vG9W0ky69-24" target="m7zva88hIw5vG9W0ky69-58">
          <mxGeometry width="50" height="50" relative="1" as="geometry">
            <mxPoint x="590" y="160" as="sourcePoint" />
            <mxPoint x="640" y="110" as="targetPoint" />
          </mxGeometry>
        </mxCell>
        <mxCell id="m7zva88hIw5vG9W0ky69-15" value="" style="endArrow=classic;html=1;rounded=0;exitX=0.5;exitY=1;exitDx=0;exitDy=0;" edge="1" parent="m7zva88hIw5vG9W0ky69-1" source="m7zva88hIw5vG9W0ky69-8" target="m7zva88hIw5vG9W0ky69-11">
          <mxGeometry width="50" height="50" relative="1" as="geometry">
            <mxPoint x="160" y="430" as="sourcePoint" />
            <mxPoint x="210" y="380" as="targetPoint" />
          </mxGeometry>
        </mxCell>
        <mxCell id="m7zva88hIw5vG9W0ky69-31" value="" style="endArrow=classic;html=1;rounded=0;exitX=1;exitY=0.5;exitDx=0;exitDy=0;entryX=-0.033;entryY=0.527;entryDx=0;entryDy=0;entryPerimeter=0;" edge="1" parent="m7zva88hIw5vG9W0ky69-1" source="m7zva88hIw5vG9W0ky69-10" target="m7zva88hIw5vG9W0ky69-22">
          <mxGeometry width="50" height="50" relative="1" as="geometry">
            <mxPoint x="530" y="390" as="sourcePoint" />
            <mxPoint x="580" y="340" as="targetPoint" />
            <Array as="points">
              <mxPoint x="670" y="360" />
              <mxPoint x="660" y="530" />
            </Array>
          </mxGeometry>
        </mxCell>
        <mxCell id="m7zva88hIw5vG9W0ky69-32" value="Найти кандидатов" style="rounded=1;whiteSpace=wrap;html=1;" vertex="1" parent="m7zva88hIw5vG9W0ky69-1">
          <mxGeometry x="200" y="860" width="100" height="35" as="geometry" />
        </mxCell>
        <mxCell id="m7zva88hIw5vG9W0ky69-33" value="" style="rhombus;whiteSpace=wrap;html=1;" vertex="1" parent="m7zva88hIw5vG9W0ky69-1">
          <mxGeometry x="230" y="800" width="40" height="30" as="geometry" />
        </mxCell>
        <mxCell id="m7zva88hIw5vG9W0ky69-34" value="" style="endArrow=classic;html=1;rounded=0;exitX=0.5;exitY=1;exitDx=0;exitDy=0;entryX=0.5;entryY=0;entryDx=0;entryDy=0;" edge="1" parent="m7zva88hIw5vG9W0ky69-1" source="m7zva88hIw5vG9W0ky69-16" target="m7zva88hIw5vG9W0ky69-33">
          <mxGeometry width="50" height="50" relative="1" as="geometry">
            <mxPoint x="500" y="730" as="sourcePoint" />
            <mxPoint x="550" y="680" as="targetPoint" />
          </mxGeometry>
        </mxCell>
        <mxCell id="m7zva88hIw5vG9W0ky69-35" value="Провести собеседование с кандидатом" style="rounded=1;whiteSpace=wrap;html=1;" vertex="1" parent="m7zva88hIw5vG9W0ky69-1">
          <mxGeometry x="330" y="860" width="180" height="35" as="geometry" />
        </mxCell>
        <mxCell id="m7zva88hIw5vG9W0ky69-36" value="" style="endArrow=classic;html=1;rounded=0;exitX=1;exitY=0.5;exitDx=0;exitDy=0;entryX=0;entryY=0.5;entryDx=0;entryDy=0;" edge="1" parent="m7zva88hIw5vG9W0ky69-1" source="m7zva88hIw5vG9W0ky69-32" target="m7zva88hIw5vG9W0ky69-35">
          <mxGeometry width="50" height="50" relative="1" as="geometry">
            <mxPoint x="500" y="790" as="sourcePoint" />
            <mxPoint x="550" y="740" as="targetPoint" />
          </mxGeometry>
        </mxCell>
        <mxCell id="m7zva88hIw5vG9W0ky69-37" value="" style="endArrow=classic;html=1;rounded=0;exitX=0.5;exitY=1;exitDx=0;exitDy=0;" edge="1" parent="m7zva88hIw5vG9W0ky69-1" source="m7zva88hIw5vG9W0ky69-33" target="m7zva88hIw5vG9W0ky69-32">
          <mxGeometry width="50" height="50" relative="1" as="geometry">
            <mxPoint x="500" y="790" as="sourcePoint" />
            <mxPoint x="550" y="740" as="targetPoint" />
          </mxGeometry>
        </mxCell>
        <mxCell id="m7zva88hIw5vG9W0ky69-38" value="" style="endArrow=classic;html=1;rounded=0;exitX=0.5;exitY=1;exitDx=0;exitDy=0;entryX=1;entryY=0.5;entryDx=0;entryDy=0;" edge="1" parent="m7zva88hIw5vG9W0ky69-1" source="m7zva88hIw5vG9W0ky69-23" target="m7zva88hIw5vG9W0ky69-33">
          <mxGeometry width="50" height="50" relative="1" as="geometry">
            <mxPoint x="500" y="790" as="sourcePoint" />
            <mxPoint x="550" y="740" as="targetPoint" />
            <Array as="points">
              <mxPoint x="750" y="820" />
            </Array>
          </mxGeometry>
        </mxCell>
        <mxCell id="m7zva88hIw5vG9W0ky69-55" value="Менеджер по подбору персонала" style="swimlane;horizontal=0;whiteSpace=wrap;html=1;" vertex="1" parent="m7zva88hIw5vG9W0ky69-1">
          <mxGeometry x="20" y="720" width="940" height="200" as="geometry" />
        </mxCell>
        <mxCell id="m7zva88hIw5vG9W0ky69-56" value="" style="endArrow=classic;html=1;rounded=0;exitX=1;exitY=0.5;exitDx=0;exitDy=0;entryX=0;entryY=0.5;entryDx=0;entryDy=0;" edge="1" parent="m7zva88hIw5vG9W0ky69-1" source="m7zva88hIw5vG9W0ky69-35" target="m7zva88hIw5vG9W0ky69-10">
          <mxGeometry width="50" height="50" relative="1" as="geometry">
            <mxPoint x="550" y="700" as="sourcePoint" />
            <mxPoint x="600" y="650" as="targetPoint" />
            <Array as="points">
              <mxPoint x="530" y="878" />
              <mxPoint x="520" y="350" />
            </Array>
          </mxGeometry>
        </mxCell>
        <mxCell id="m7zva88hIw5vG9W0ky69-21" value="нет" style="text;html=1;align=center;verticalAlign=middle;resizable=0;points=[];autosize=1;strokeColor=none;fillColor=none;" vertex="1" parent="1">
          <mxGeometry x="380" y="338" width="40" height="30" as="geometry" />
        </mxCell>
        <mxCell id="m7zva88hIw5vG9W0ky69-60" value="Заявление от физ лица на получение кредита" style="shape=parallelogram;perimeter=parallelogramPerimeter;whiteSpace=wrap;html=1;fixedSize=1;" vertex="1" parent="1">
          <mxGeometry x="374" y="1190" width="200" height="60" as="geometry" />
        </mxCell>
        <mxCell id="m7zva88hIw5vG9W0ky69-61" value="Рассмотреть заявление на получение кредита" style="rounded=1;whiteSpace=wrap;html=1;" vertex="1" parent="1">
          <mxGeometry x="414" y="1280" width="120" height="60" as="geometry" />
        </mxCell>
        <mxCell id="m7zva88hIw5vG9W0ky69-62" value="Заявление" style="shape=process;whiteSpace=wrap;html=1;backgroundOutline=1;" vertex="1" parent="1">
          <mxGeometry x="180" y="1280" width="120" height="60" as="geometry" />
        </mxCell>
        <mxCell id="m7zva88hIw5vG9W0ky69-63" value="Клиент-менеджер" style="rounded=0;whiteSpace=wrap;html=1;" vertex="1" parent="1">
          <mxGeometry x="780" y="1280" width="120" height="60" as="geometry" />
        </mxCell>
        <mxCell id="m7zva88hIw5vG9W0ky69-64" value="" style="rhombus;whiteSpace=wrap;html=1;" vertex="1" parent="1">
          <mxGeometry x="444" y="1360" width="60" height="50" as="geometry" />
        </mxCell>
        <mxCell id="m7zva88hIw5vG9W0ky69-65" value="Заявление было согласовано неправильно" style="shape=parallelogram;perimeter=parallelogramPerimeter;whiteSpace=wrap;html=1;fixedSize=1;" vertex="1" parent="1">
          <mxGeometry x="294" y="1410" width="120" height="60" as="geometry" />
        </mxCell>
        <mxCell id="m7zva88hIw5vG9W0ky69-66" value="Заявление было принято" style="shape=parallelogram;perimeter=parallelogramPerimeter;whiteSpace=wrap;html=1;fixedSize=1;" vertex="1" parent="1">
          <mxGeometry x="530" y="1410" width="120" height="60" as="geometry" />
        </mxCell>
        <mxCell id="m7zva88hIw5vG9W0ky69-67" value="Отдать клиенту на согласование" style="rounded=1;whiteSpace=wrap;html=1;" vertex="1" parent="1">
          <mxGeometry x="293" y="1500" width="120" height="60" as="geometry" />
        </mxCell>
        <mxCell id="m7zva88hIw5vG9W0ky69-68" value="Предоставление пакета документов" style="rounded=1;whiteSpace=wrap;html=1;" vertex="1" parent="1">
          <mxGeometry x="530" y="1500" width="120" height="60" as="geometry" />
        </mxCell>
        <mxCell id="m7zva88hIw5vG9W0ky69-69" value="" style="endArrow=classic;html=1;rounded=0;exitX=1;exitY=0.5;exitDx=0;exitDy=0;entryX=0;entryY=0.5;entryDx=0;entryDy=0;" edge="1" parent="1" source="m7zva88hIw5vG9W0ky69-62" target="m7zva88hIw5vG9W0ky69-61">
          <mxGeometry width="50" height="50" relative="1" as="geometry">
            <mxPoint x="730" y="1450" as="sourcePoint" />
            <mxPoint x="780" y="1400" as="targetPoint" />
          </mxGeometry>
        </mxCell>
        <mxCell id="m7zva88hIw5vG9W0ky69-70" value="" style="endArrow=classic;html=1;rounded=0;exitX=0;exitY=0.5;exitDx=0;exitDy=0;entryX=1;entryY=0.5;entryDx=0;entryDy=0;" edge="1" parent="1" source="m7zva88hIw5vG9W0ky69-63" target="m7zva88hIw5vG9W0ky69-61">
          <mxGeometry width="50" height="50" relative="1" as="geometry">
            <mxPoint x="730" y="1450" as="sourcePoint" />
            <mxPoint x="780" y="1400" as="targetPoint" />
          </mxGeometry>
        </mxCell>
        <mxCell id="m7zva88hIw5vG9W0ky69-71" value="" style="endArrow=classic;html=1;rounded=0;exitX=0.5;exitY=1;exitDx=0;exitDy=0;" edge="1" parent="1" source="m7zva88hIw5vG9W0ky69-60" target="m7zva88hIw5vG9W0ky69-61">
          <mxGeometry width="50" height="50" relative="1" as="geometry">
            <mxPoint x="730" y="1450" as="sourcePoint" />
            <mxPoint x="780" y="1400" as="targetPoint" />
          </mxGeometry>
        </mxCell>
        <mxCell id="m7zva88hIw5vG9W0ky69-72" value="" style="endArrow=classic;html=1;rounded=0;exitX=0.5;exitY=1;exitDx=0;exitDy=0;entryX=0.5;entryY=0;entryDx=0;entryDy=0;" edge="1" parent="1" source="m7zva88hIw5vG9W0ky69-61" target="m7zva88hIw5vG9W0ky69-64">
          <mxGeometry width="50" height="50" relative="1" as="geometry">
            <mxPoint x="730" y="1450" as="sourcePoint" />
            <mxPoint x="780" y="1400" as="targetPoint" />
          </mxGeometry>
        </mxCell>
        <mxCell id="m7zva88hIw5vG9W0ky69-73" value="" style="endArrow=classic;html=1;rounded=0;exitX=1;exitY=0.5;exitDx=0;exitDy=0;entryX=0.5;entryY=0;entryDx=0;entryDy=0;" edge="1" parent="1" source="m7zva88hIw5vG9W0ky69-64" target="m7zva88hIw5vG9W0ky69-66">
          <mxGeometry width="50" height="50" relative="1" as="geometry">
            <mxPoint x="590" y="1490" as="sourcePoint" />
            <mxPoint x="640" y="1440" as="targetPoint" />
            <Array as="points">
              <mxPoint x="590" y="1390" />
            </Array>
          </mxGeometry>
        </mxCell>
        <mxCell id="m7zva88hIw5vG9W0ky69-74" value="" style="endArrow=classic;html=1;rounded=0;exitX=0;exitY=0.5;exitDx=0;exitDy=0;entryX=0.5;entryY=0;entryDx=0;entryDy=0;" edge="1" parent="1" source="m7zva88hIw5vG9W0ky69-64" target="m7zva88hIw5vG9W0ky69-65">
          <mxGeometry width="50" height="50" relative="1" as="geometry">
            <mxPoint x="730" y="1550" as="sourcePoint" />
            <mxPoint x="780" y="1500" as="targetPoint" />
            <Array as="points">
              <mxPoint x="360" y="1390" />
            </Array>
          </mxGeometry>
        </mxCell>
        <mxCell id="m7zva88hIw5vG9W0ky69-75" value="" style="endArrow=classic;html=1;rounded=0;exitX=0.5;exitY=1;exitDx=0;exitDy=0;" edge="1" parent="1" source="m7zva88hIw5vG9W0ky69-65" target="m7zva88hIw5vG9W0ky69-67">
          <mxGeometry width="50" height="50" relative="1" as="geometry">
            <mxPoint x="730" y="1550" as="sourcePoint" />
            <mxPoint x="780" y="1500" as="targetPoint" />
          </mxGeometry>
        </mxCell>
        <mxCell id="m7zva88hIw5vG9W0ky69-76" value="" style="endArrow=classic;html=1;rounded=0;exitX=0.5;exitY=1;exitDx=0;exitDy=0;" edge="1" parent="1" source="m7zva88hIw5vG9W0ky69-66" target="m7zva88hIw5vG9W0ky69-68">
          <mxGeometry width="50" height="50" relative="1" as="geometry">
            <mxPoint x="590" y="1579" as="sourcePoint" />
            <mxPoint x="360" y="1670" as="targetPoint" />
          </mxGeometry>
        </mxCell>
        <mxCell id="m7zva88hIw5vG9W0ky69-77" value="" style="endArrow=classic;html=1;rounded=0;entryX=1;entryY=0.5;entryDx=0;entryDy=0;exitX=0;exitY=0.5;exitDx=0;exitDy=0;" edge="1" parent="1" source="m7zva88hIw5vG9W0ky69-63" target="m7zva88hIw5vG9W0ky69-68">
          <mxGeometry width="50" height="50" relative="1" as="geometry">
            <mxPoint x="740" y="1470" as="sourcePoint" />
            <mxPoint x="780" y="1500" as="targetPoint" />
            <Array as="points">
              <mxPoint x="710" y="1310" />
              <mxPoint x="710" y="1530" />
            </Array>
          </mxGeometry>
        </mxCell>
        <mxCell id="m7zva88hIw5vG9W0ky69-78" value="" style="endArrow=classic;html=1;rounded=0;exitX=0;exitY=0.5;exitDx=0;exitDy=0;entryX=-0.05;entryY=0.467;entryDx=0;entryDy=0;entryPerimeter=0;" edge="1" parent="1" source="m7zva88hIw5vG9W0ky69-63" target="m7zva88hIw5vG9W0ky69-67">
          <mxGeometry width="50" height="50" relative="1" as="geometry">
            <mxPoint x="730" y="1550" as="sourcePoint" />
            <mxPoint x="780" y="1500" as="targetPoint" />
            <Array as="points">
              <mxPoint x="710" y="1310" />
              <mxPoint x="710" y="1170" />
              <mxPoint x="130" y="1170" />
              <mxPoint x="120" y="1540" />
            </Array>
          </mxGeometry>
        </mxCell>
        <mxCell id="m7zva88hIw5vG9W0ky69-79" value="Заявление отдано на исправление" style="shape=parallelogram;perimeter=parallelogramPerimeter;whiteSpace=wrap;html=1;fixedSize=1;" vertex="1" parent="1">
          <mxGeometry x="294" y="1590" width="120" height="60" as="geometry" />
        </mxCell>
        <mxCell id="m7zva88hIw5vG9W0ky69-80" value="полученная информация о клиенте было собрана" style="shape=parallelogram;perimeter=parallelogramPerimeter;whiteSpace=wrap;html=1;fixedSize=1;" vertex="1" parent="1">
          <mxGeometry x="530" y="1590" width="120" height="60" as="geometry" />
        </mxCell>
        <mxCell id="m7zva88hIw5vG9W0ky69-81" value="Рассмотреть заявки на получение кредита" style="rounded=1;whiteSpace=wrap;html=1;" vertex="1" parent="1">
          <mxGeometry x="524" y="1696" width="120" height="60" as="geometry" />
        </mxCell>
        <mxCell id="m7zva88hIw5vG9W0ky69-82" value="Кредитный коммитет" style="rounded=0;whiteSpace=wrap;html=1;" vertex="1" parent="1">
          <mxGeometry x="870" y="1696" width="120" height="60" as="geometry" />
        </mxCell>
        <mxCell id="m7zva88hIw5vG9W0ky69-83" value="Пакет документов для клиента" style="shape=process;whiteSpace=wrap;html=1;backgroundOutline=1;" vertex="1" parent="1">
          <mxGeometry x="150" y="1706" width="120" height="60" as="geometry" />
        </mxCell>
        <mxCell id="m7zva88hIw5vG9W0ky69-84" value="Кредитоспособность клиента проанализирована" style="shape=parallelogram;perimeter=parallelogramPerimeter;whiteSpace=wrap;html=1;fixedSize=1;" vertex="1" parent="1">
          <mxGeometry x="484" y="1766" width="210" height="60" as="geometry" />
        </mxCell>
        <mxCell id="m7zva88hIw5vG9W0ky69-85" value="Вынести вердикт" style="rounded=1;whiteSpace=wrap;html=1;" vertex="1" parent="1">
          <mxGeometry x="529" y="1850" width="120" height="60" as="geometry" />
        </mxCell>
        <mxCell id="m7zva88hIw5vG9W0ky69-86" value="" style="rhombus;whiteSpace=wrap;html=1;" vertex="1" parent="1">
          <mxGeometry x="554" y="1930" width="60" height="50" as="geometry" />
        </mxCell>
        <mxCell id="m7zva88hIw5vG9W0ky69-87" value="Отрицательный вердикт был сообщен клиенту" style="shape=parallelogram;perimeter=parallelogramPerimeter;whiteSpace=wrap;html=1;fixedSize=1;" vertex="1" parent="1">
          <mxGeometry x="364" y="1980" width="120" height="60" as="geometry" />
        </mxCell>
        <mxCell id="m7zva88hIw5vG9W0ky69-88" value="Был вынесен положительный вердикт" style="shape=parallelogram;perimeter=parallelogramPerimeter;whiteSpace=wrap;html=1;fixedSize=1;" vertex="1" parent="1">
          <mxGeometry x="650" y="1980" width="120" height="60" as="geometry" />
        </mxCell>
        <mxCell id="m7zva88hIw5vG9W0ky69-89" value="Сообщить клиенту об одобрении кредита" style="rounded=1;whiteSpace=wrap;html=1;" vertex="1" parent="1">
          <mxGeometry x="650" y="2060" width="120" height="60" as="geometry" />
        </mxCell>
        <mxCell id="m7zva88hIw5vG9W0ky69-90" value="Кредитный договор был заключен с клиентом" style="shape=parallelogram;perimeter=parallelogramPerimeter;whiteSpace=wrap;html=1;fixedSize=1;" vertex="1" parent="1">
          <mxGeometry x="650" y="2150" width="120" height="60" as="geometry" />
        </mxCell>
        <mxCell id="m7zva88hIw5vG9W0ky69-91" value="" style="endArrow=classic;html=1;rounded=0;exitX=0.5;exitY=1;exitDx=0;exitDy=0;entryX=0.5;entryY=0;entryDx=0;entryDy=0;" edge="1" parent="1" source="m7zva88hIw5vG9W0ky69-67" target="m7zva88hIw5vG9W0ky69-79">
          <mxGeometry width="50" height="50" relative="1" as="geometry">
            <mxPoint x="730" y="1950" as="sourcePoint" />
            <mxPoint x="780" y="1900" as="targetPoint" />
          </mxGeometry>
        </mxCell>
        <mxCell id="m7zva88hIw5vG9W0ky69-92" value="" style="endArrow=classic;html=1;rounded=0;" edge="1" parent="1" source="m7zva88hIw5vG9W0ky69-68" target="m7zva88hIw5vG9W0ky69-80">
          <mxGeometry width="50" height="50" relative="1" as="geometry">
            <mxPoint x="730" y="1950" as="sourcePoint" />
            <mxPoint x="780" y="1900" as="targetPoint" />
          </mxGeometry>
        </mxCell>
        <mxCell id="m7zva88hIw5vG9W0ky69-93" value="" style="endArrow=classic;html=1;rounded=0;exitX=0.5;exitY=1;exitDx=0;exitDy=0;" edge="1" parent="1" source="m7zva88hIw5vG9W0ky69-80" target="m7zva88hIw5vG9W0ky69-81">
          <mxGeometry width="50" height="50" relative="1" as="geometry">
            <mxPoint x="720" y="1786" as="sourcePoint" />
            <mxPoint x="770" y="1736" as="targetPoint" />
          </mxGeometry>
        </mxCell>
        <mxCell id="m7zva88hIw5vG9W0ky69-94" value="" style="endArrow=classic;html=1;rounded=0;exitX=0;exitY=0.5;exitDx=0;exitDy=0;" edge="1" parent="1" source="m7zva88hIw5vG9W0ky69-82" target="m7zva88hIw5vG9W0ky69-81">
          <mxGeometry width="50" height="50" relative="1" as="geometry">
            <mxPoint x="720" y="1786" as="sourcePoint" />
            <mxPoint x="770" y="1736" as="targetPoint" />
          </mxGeometry>
        </mxCell>
        <mxCell id="m7zva88hIw5vG9W0ky69-95" value="" style="endArrow=classic;html=1;rounded=0;entryX=0;entryY=0.5;entryDx=0;entryDy=0;" edge="1" parent="1" source="m7zva88hIw5vG9W0ky69-83" target="m7zva88hIw5vG9W0ky69-81">
          <mxGeometry width="50" height="50" relative="1" as="geometry">
            <mxPoint x="720" y="1786" as="sourcePoint" />
            <mxPoint x="770" y="1736" as="targetPoint" />
          </mxGeometry>
        </mxCell>
        <mxCell id="m7zva88hIw5vG9W0ky69-96" value="" style="endArrow=classic;html=1;rounded=0;exitX=0.25;exitY=1;exitDx=0;exitDy=0;entryX=0;entryY=0.75;entryDx=0;entryDy=0;" edge="1" parent="1" source="m7zva88hIw5vG9W0ky69-62" target="m7zva88hIw5vG9W0ky69-81">
          <mxGeometry width="50" height="50" relative="1" as="geometry">
            <mxPoint x="730" y="1750" as="sourcePoint" />
            <mxPoint x="780" y="1700" as="targetPoint" />
            <Array as="points">
              <mxPoint x="200" y="1680" />
              <mxPoint x="440" y="1680" />
              <mxPoint x="440" y="1740" />
            </Array>
          </mxGeometry>
        </mxCell>
        <mxCell id="m7zva88hIw5vG9W0ky69-97" value="" style="endArrow=classic;html=1;rounded=0;exitX=0.5;exitY=1;exitDx=0;exitDy=0;" edge="1" parent="1" source="m7zva88hIw5vG9W0ky69-81" target="m7zva88hIw5vG9W0ky69-84">
          <mxGeometry width="50" height="50" relative="1" as="geometry">
            <mxPoint x="720" y="1786" as="sourcePoint" />
            <mxPoint x="770" y="1736" as="targetPoint" />
          </mxGeometry>
        </mxCell>
        <mxCell id="m7zva88hIw5vG9W0ky69-98" value="" style="endArrow=classic;html=1;rounded=0;exitX=0.5;exitY=1;exitDx=0;exitDy=0;entryX=0.5;entryY=0;entryDx=0;entryDy=0;" edge="1" parent="1" source="m7zva88hIw5vG9W0ky69-84" target="m7zva88hIw5vG9W0ky69-85">
          <mxGeometry width="50" height="50" relative="1" as="geometry">
            <mxPoint x="720" y="1886" as="sourcePoint" />
            <mxPoint x="770" y="1836" as="targetPoint" />
          </mxGeometry>
        </mxCell>
        <mxCell id="m7zva88hIw5vG9W0ky69-99" value="" style="endArrow=classic;html=1;rounded=0;exitX=0.5;exitY=1;exitDx=0;exitDy=0;entryX=0.5;entryY=0;entryDx=0;entryDy=0;" edge="1" parent="1" source="m7zva88hIw5vG9W0ky69-85" target="m7zva88hIw5vG9W0ky69-86">
          <mxGeometry width="50" height="50" relative="1" as="geometry">
            <mxPoint x="720" y="2086" as="sourcePoint" />
            <mxPoint x="770" y="2036" as="targetPoint" />
          </mxGeometry>
        </mxCell>
        <mxCell id="m7zva88hIw5vG9W0ky69-100" value="" style="endArrow=classic;html=1;rounded=0;exitX=0;exitY=0.5;exitDx=0;exitDy=0;entryX=0.5;entryY=0;entryDx=0;entryDy=0;" edge="1" parent="1" source="m7zva88hIw5vG9W0ky69-86" target="m7zva88hIw5vG9W0ky69-87">
          <mxGeometry width="50" height="50" relative="1" as="geometry">
            <mxPoint x="720" y="2010" as="sourcePoint" />
            <mxPoint x="770" y="1960" as="targetPoint" />
            <Array as="points">
              <mxPoint x="420" y="1960" />
            </Array>
          </mxGeometry>
        </mxCell>
        <mxCell id="m7zva88hIw5vG9W0ky69-101" value="" style="endArrow=classic;html=1;rounded=0;exitX=0;exitY=0.5;exitDx=0;exitDy=0;entryX=1;entryY=0.5;entryDx=0;entryDy=0;" edge="1" parent="1" source="m7zva88hIw5vG9W0ky69-82" target="m7zva88hIw5vG9W0ky69-85">
          <mxGeometry width="50" height="50" relative="1" as="geometry">
            <mxPoint x="720" y="2086" as="sourcePoint" />
            <mxPoint x="770" y="2036" as="targetPoint" />
            <Array as="points">
              <mxPoint x="700" y="1726" />
              <mxPoint x="720" y="1880" />
            </Array>
          </mxGeometry>
        </mxCell>
        <mxCell id="m7zva88hIw5vG9W0ky69-102" value="" style="endArrow=classic;html=1;rounded=0;exitX=1;exitY=0.5;exitDx=0;exitDy=0;entryX=0.5;entryY=0;entryDx=0;entryDy=0;" edge="1" parent="1" source="m7zva88hIw5vG9W0ky69-86" target="m7zva88hIw5vG9W0ky69-88">
          <mxGeometry width="50" height="50" relative="1" as="geometry">
            <mxPoint x="680" y="2000" as="sourcePoint" />
            <mxPoint x="770" y="1960" as="targetPoint" />
            <Array as="points">
              <mxPoint x="710" y="1955" />
            </Array>
          </mxGeometry>
        </mxCell>
        <mxCell id="m7zva88hIw5vG9W0ky69-103" value="" style="endArrow=classic;html=1;rounded=0;exitX=0.5;exitY=1;exitDx=0;exitDy=0;" edge="1" parent="1" source="m7zva88hIw5vG9W0ky69-88" target="m7zva88hIw5vG9W0ky69-89">
          <mxGeometry width="50" height="50" relative="1" as="geometry">
            <mxPoint x="720" y="2110" as="sourcePoint" />
            <mxPoint x="770" y="2060" as="targetPoint" />
          </mxGeometry>
        </mxCell>
        <mxCell id="m7zva88hIw5vG9W0ky69-104" value="" style="endArrow=classic;html=1;rounded=0;exitX=0.5;exitY=1;exitDx=0;exitDy=0;" edge="1" parent="1" source="m7zva88hIw5vG9W0ky69-89" target="m7zva88hIw5vG9W0ky69-90">
          <mxGeometry width="50" height="50" relative="1" as="geometry">
            <mxPoint x="720" y="2110" as="sourcePoint" />
            <mxPoint x="770" y="2060" as="targetPoint" />
          </mxGeometry>
        </mxCell>
        <mxCell id="m7zva88hIw5vG9W0ky69-105" value="" style="endArrow=classic;html=1;rounded=0;exitX=0;exitY=0.5;exitDx=0;exitDy=0;entryX=1;entryY=0.5;entryDx=0;entryDy=0;" edge="1" parent="1" source="m7zva88hIw5vG9W0ky69-82" target="m7zva88hIw5vG9W0ky69-89">
          <mxGeometry width="50" height="50" relative="1" as="geometry">
            <mxPoint x="720" y="2086" as="sourcePoint" />
            <mxPoint x="770" y="2036" as="targetPoint" />
            <Array as="points">
              <mxPoint x="820" y="1726" />
              <mxPoint x="820" y="2140" />
            </Array>
          </mxGeometry>
        </mxCell>
      </root>
    </mxGraphModel>
  </diagram>
</mxfile>
